<svg xmlns="http://www.w3.org/2000/svg" width="60" height="53" viewBox="0 0 60 53">
    <g fill="none" fill-rule="nonzero">
        <path fill="#7E5C62" d="M38.5 9c-.83 0-1.5-.373-1.5-.833V4.833c0-.46.67-.833 1.5-.833s1.5.373 1.5.833v3.334c0 .46-.67.833-1.5.833zM21.5 9c-.83 0-1.5-.373-1.5-.833V4.833c0-.46.67-.833 1.5-.833s1.5.373 1.5.833v3.334c0 .46-.67.833-1.5.833z"/>
        <path fill="#996459" d="M58.067 32H3.933a.923.923 0 0 0-.933.913v15.522C3 50.952 5.094 53 7.667 53h46.666C56.906 53 59 50.952 59 48.435V32.913a.923.923 0 0 0-.933-.913z"/>
        <path fill="#BA7958" d="M55.313 8H4.687C2.103 8 0 10.048 0 12.564V28.45c0 1.835 1.133 3.491 2.886 4.219A70.542 70.542 0 0 0 27.187 38h5.664a70.51 70.51 0 0 0 24.264-5.332C58.867 31.94 60 30.284 60 28.448V12.565C60 10.048 57.897 8 55.312 8z"/>
        <path fill="#7E5C62" d="M42 28.498C42 26.57 40.28 25 38.167 25H22.833C20.72 25 19 26.57 19 28.498v8.685c2.841.426 5.716.708 8.625.817h5.79A77.437 77.437 0 0 0 42 37.183v-8.686z"/>
        <path fill="#FFCD00" d="M31.333 42h-1.666c-.92 0-1.667-.895-1.667-2v-4c0-1.105.746-2 1.667-2h1.666c.92 0 1.667.895 1.667 2v4c0 1.105-.746 2-1.667 2z"/>
        <path fill="#996459" d="M39.154 5c-.176 0-.355-.026-.533-.079-2.773-.827-6.1-1.264-9.62-1.264-3.522 0-6.849.437-9.622 1.264a1.848 1.848 0 0 1-2.3-1.223 1.826 1.826 0 0 1 1.235-2.278C21.428.49 25.124 0 29 0c3.876 0 7.572.491 10.686 1.42a1.826 1.826 0 0 1 1.235 2.278 1.845 1.845 0 0 1-1.767 1.301z"/>
        <path fill="#FFE671" d="M31.167 34h-3.334c-.46 0-.833.358-.833.8v1.6c0 .884.746 1.6 1.667 1.6h1.666c.92 0 1.667-.716 1.667-1.6v-1.6c0-.442-.373-.8-.833-.8z"/>
    </g>
</svg>
