<svg xmlns="http://www.w3.org/2000/svg" width="792" height="518" viewBox="0 0 792 518">
    <defs>
        <filter id="a" width="110.7%" height="161.5%" x="-5.3%" y="-30.8%" filterUnits="objectBoundingBox">
            <feOffset dy="2" in="SourceAlpha" result="shadowOffsetOuter1"/>
            <feGaussianBlur in="shadowOffsetOuter1" result="shadowBlurOuter1" stdDeviation="2"/>
            <feColorMatrix in="shadowBlurOuter1" result="shadowMatrixOuter1" values="0 0 0 0 0 0 0 0 0 0 0 0 0 0 0 0 0 0 0.5 0"/>
            <feMerge>
                <feMergeNode in="shadowMatrixOuter1"/>
                <feMergeNode in="SourceGraphic"/>
            </feMerge>
        </filter>
        <filter id="b" width="118.3%" height="157.1%" x="-9.2%" y="-28.6%" filterUnits="objectBoundingBox">
            <feOffset dy="2" in="SourceAlpha" result="shadowOffsetOuter1"/>
            <feGaussianBlur in="shadowOffsetOuter1" result="shadowBlurOuter1" stdDeviation="2"/>
            <feColorMatrix in="shadowBlurOuter1" result="shadowMatrixOuter1" values="0 0 0 0 0 0 0 0 0 0 0 0 0 0 0 0 0 0 0.5 0"/>
            <feMerge>
                <feMergeNode in="shadowMatrixOuter1"/>
                <feMergeNode in="SourceGraphic"/>
            </feMerge>
        </filter>
    </defs>
    <g fill="none" fill-rule="evenodd" transform="translate(.637)">
        <path fill="#50E3C2" d="M764.066 125.277c-.533-.388-1.799-.526-2.387-.642-2.448-.482-4.969-.692-7.464-.692-7.693.011-15.511.766-23.076 2.073-4.804.83-10.61 3.622-15.389 2.106-8.324-2.642-16.738-2.513-24.635 1.26-7.221 3.449-12.702 10-15.901 17.078-.483 1.069-2.441 5.001-2.995 7.652a31.016 31.016 0 0 0-.67 1.642 82.967 82.967 0 0 0-1.59 4.777c-.208.684-.73 2.194-.11 2.486a45.46 45.46 0 0 0-2.598 5.652c-2.125 5.652-4.448 11.851-5.195 17.841a27.912 27.912 0 0 0-.03 6.672c.127 1.098.075 3.307.82 4.142 1.58 1.772 2.391-.709 2.213-1.89-1.36-9.007 1.267-17.464 4.38-25.93 2.013-5.475 5.322-10.483 9.027-15.019 3-3.671 6.217-6.562 10.328-8.997 5.028-2.976 10.403-5.383 15.728-7.797 3.503-1.588 7.01-3.133 10.61-4.502.8-.304 2.06-1.085 2.948-1.088 1.877-.007 4.538 1.379 6.35 1.894 5.965 1.696 12.005 3.866 18.17 4.732 3.953.556 7.657-.07 11.354-1.387.378-.134 1.012-.48 1.788-.974 2.745-1.056 5.341-2.385 7.603-4.302 1.302-1.105 2.484-2.532 3.562-3.839a2.01 2.01 0 0 0 .47-1.264c.245-.128.407-.277.443-.451.27-1.286-2.183-1.31-3.754-1.233M744.912 175.66c-3.411-.745-7.177-.688-10.652-.627-18.633.254-36.931 9.076-48.84 23.172-10.138 12-12.925 26.92-14.928 42.002-.199 1.497-.284 2.985-.396 4.486-.024.322-.06.61-.098.88-.788.704-1.201 1.525-.735 2.427-1.735 3.797-3.203 7.69-4.462 11.706-3.707 11.82-7.478 23.865-5.155 36.294.542-6.84 1.684-13.834 3.05-20.562.078-.386.163-.77.25-1.151l.027-.12a44.965 44.965 0 0 1 1.876-6.026l.024-.064c.1-.259.208-.517.314-.774.218-.533.443-1.065.682-1.594.08-.18.158-.363.232-.546 1.112-2.726 1.582-5.798 2.578-8.618.239-.641.488-1.28.749-1.916.015-.037.03-.074.047-.111.705-1.71 1.485-3.4 2.31-5.072.447-.336.687-1.172 1.073-1.931.08-.15.705-1.147.89-1.722.486-.939.97-1.878 1.459-2.816l-.044.017c.489-.9.98-1.797 1.466-2.69l.324-.589.524-.938a176.938 176.938 0 0 1 5.16-8.61c.641-1.009 2.174-2.456 2.467-3.588.011-.043.014-.082.02-.122 3.9-5.478 8.39-10.53 13.774-14.533-.65.704-2.034 3.091-2.4 3.564-1.12 1.447-2.334 2.794-3.554 4.158-2.184 2.443-4.317 4.963-6.212 7.628-3.465 4.874-6.455 10.003-9.281 15.236l-.082.09c-1.42 1.752-2.314 4.398-3.337 6.4 4.047-1.873 8.521-3.094 12.674-4.758 4.141-1.66 8.17-3.507 12.06-5.676 5.169-2.884 10.531-6.14 15.416-9.823 5.597-3.472 10.3-8.251 14.452-13.266 4.913-5.934 9.414-11.92 12.199-19.124 1.367-3.54 2.443-7.232 3.081-10.967.028-.162.064-.339.102-.522a35.925 35.925 0 0 0 1.726-3.958c.778-2.14 2.614-4.494-.83-5.246"/>
        <path fill="#C0A75B" d="M790.829 430.48c10.34 64.46-240.444 106.504-456.3 77.162C118.672 478.3 19.648 363.716 122.65 302.662c103.003-61.055 657.837 63.358 668.178 127.818z" opacity=".112"/>
        <rect width="335" height="346" x="341.266" y="56.029" fill="#F2F2F2" rx="8"/>
        <rect width="70" height="81" x="590.266" y="99.029" fill="#FFF" rx="8"/>
        <circle cx="625.266" cy="130.029" r="16" fill="#DDE3E9"/>
        <rect width="50" height="6" x="600.266" y="150.029" fill="#DDE3E9" rx="3"/>
        <rect width="34" height="6" x="608.266" y="160.029" fill="#DDE3E9" rx="3"/>
        <path fill="#C5CFD6" d="M349.266 56.03h319a8 8 0 0 1 8 8v19h-335v-19a8 8 0 0 1 8-8z"/>
        <rect width="70" height="194" x="590.266" y="188.029" fill="#FFF" rx="8"/>
        <g transform="translate(608.266 206.03)">
            <rect width="34" height="26" fill="#DDE3E9" rx="4"/>
            <rect width="34" height="25" y="34" fill="#AFB9C5" rx="4"/>
            <rect width="34" height="25" y="67" fill="#DDE3E9" rx="4"/>
            <rect width="34" height="25" y="133" fill="#DDE3E9" rx="4"/>
            <rect width="34" height="25" y="100" fill="#C5CFD6" rx="4"/>
        </g>
        <g transform="translate(357.266 100.03)">
            <rect width="225" height="47" fill="#FFF" rx="4"/>
            <g fill="#DDE3E9" transform="translate(9 14.1)">
                <rect width="167" height="7.05" rx="3"/>
                <rect width="112.096" height="7.05" y="11.75" rx="3"/>
            </g>
            <g transform="translate(193.954 16.5)">
                <circle cx="7" cy="7" r="7" fill="#DDE3E9"/>
                <circle cx="7" cy="7" r="3" fill="#F2F2F2"/>
            </g>
        </g>
        <g transform="translate(357.266 155.03)">
            <rect width="225" height="39" fill="#FFF" rx="4"/>
            <g fill="#DDE3E9" transform="translate(9 11.7)">
                <rect width="167" height="5.85" rx="2.925"/>
                <rect width="112.096" height="5.85" y="9.75" rx="2.925"/>
            </g>
            <g transform="translate(193.954 12.5)">
                <circle cx="7" cy="7" r="7" fill="#DDE3E9"/>
                <circle cx="7" cy="7" r="3" fill="#F2F2F2"/>
            </g>
        </g>
        <g transform="translate(357.266 202.03)">
            <rect width="225" height="39" fill="#FFF" rx="4"/>
            <g fill="#DDE3E9" transform="translate(9 11.7)">
                <rect width="167" height="5.85" rx="2.925"/>
                <rect width="112.096" height="5.85" y="9.75" rx="2.925"/>
            </g>
            <g transform="translate(193.954 12.5)">
                <circle cx="7" cy="7" r="7" fill="#DDE3E9"/>
                <circle cx="7" cy="7" r="3" fill="#AFB9C5"/>
            </g>
        </g>
        <g transform="translate(357.266 343.03)">
            <rect width="225" height="39" fill="#FFF" rx="4"/>
            <g fill="#DDE3E9" transform="translate(9 11.7)">
                <rect width="167" height="5.85" rx="2.925"/>
                <rect width="112.096" height="5.85" y="9.75" rx="2.925"/>
            </g>
            <g transform="translate(193.954 12.5)">
                <circle cx="7" cy="7" r="7" fill="#DDE3E9"/>
                <circle cx="7" cy="7" r="3" fill="#F2F2F2"/>
            </g>
        </g>
        <g transform="translate(357.266 296.03)">
            <rect width="225" height="39" fill="#FFF" rx="4"/>
            <g fill="#DDE3E9" transform="translate(9 11.7)">
                <rect width="167" height="5.85" rx="2.925"/>
                <rect width="112.096" height="5.85" y="9.75" rx="2.925"/>
            </g>
            <g transform="translate(193.954 12.5)">
                <circle cx="7" cy="7" r="7" fill="#DDE3E9"/>
                <circle cx="7" cy="7" r="3" fill="#F2F2F2"/>
            </g>
        </g>
        <g filter="url(#a)" transform="translate(357.266 249.03)">
            <rect width="225" height="39" fill="#FFF" rx="4"/>
            <g fill="#DDE3E9" transform="translate(9 11.7)">
                <rect width="167" height="5.85" rx="2.925"/>
                <rect width="112.096" height="5.85" y="9.75" rx="2.925"/>
            </g>
            <g transform="translate(193.954 12.5)">
                <circle cx="7" cy="7" r="7" fill="#DDE3E9"/>
                <circle cx="7" cy="7" r="3" fill="#F2F2F2"/>
            </g>
        </g>
        <path fill="#FFCEB3" d="M666.849 294.042c2.744-3.224 4.602-7.176 4.291-11.604-.894-12.758-18.637-9.951-22.088-3.512-3.451 6.44-3.041 22.773 1.42 23.923 1.778.46 5.568-.665 9.424-2.992L657.476 317h14.294l-4.921-22.958z"/>
        <path fill="#191847" d="M667.947 296.914c1.794-7.989 6.905-13.435 6.125-17.006-.52-2.38-1.908-3.86-4.161-4.44-1.166-4.72-4.925-6.728-11.277-6.023-9.53 1.057-15.345 5.018-12.833 13.734 2.308 0 5.095-.836 8.95.596 1.222.454 2.097 1.863 2.623 4.227h1.742c1.69-2.805 3.357-3.836 5-3.092 1.643.743 2.016 2.549 1.12 5.417l.858 6.587h1.853z"/>
        <path fill="#C5CFD6" d="M704.42 390.954h-55.44c-8.836 0-16 7.163-16 16v42c0 8.837 7.164 16 16 16h55.44c8.837 0 16-7.163 16-16v-42c0-8.837-7.163-16-16-16zm-4.655 16.71a4 4 0 0 1 4 4v32.58a4 4 0 0 1-4 4h-46.129a4 4 0 0 1-4-4v-32.58a4 4 0 0 1 4-4h46.13z"/>
        <path fill="#FFCEB3" d="M574.43 461.657c11.699-14.305 19.614-24.91 23.746-31.814 7.076-11.823 12.867-22.343 14.694-26.362 4.358-9.583-10.033-14.07-13.29-9.6-4.929 6.765-15.456 28.053-31.582 63.865l6.432 3.91z"/>
        <path fill="#2A2A2A" d="M598.402 457.498l21.77-54.877c4.657-10.004-17.83-16.58-21.251-11.924-7.77 10.57-26.235 52.265-28.55 55.414l28.03 11.387z"/>
        <path fill="#FFCEB3" d="M656.419 446.504c-4.248-6.194-19.695-27.033-28.107-35.657a639.88 639.88 0 0 0-7.007-7.074c-6.631-6.588-19.82 4.47-13.201 10.47 16.482 14.947 40.53 35.124 42.538 36.923 2.816 2.521 8.446-.77 5.777-4.662z"/>
        <path fill="#02C2B2" d="M655.479 444.203c1.072.95 1.793 1.743 2.161 2.382.541.937 1.177 2.393 1.908 4.368l-28.827 16.643c-2.202-2.085-2.555-3.694-1.057-4.826a181.484 181.484 0 0 0 3.709-2.866l9.64-13.457a1 1 0 0 1 1.428-.207l1.752 1.366c1.903-.154 3.322-.5 4.256-1.04.63-.364 1.334-1.056 2.114-2.078a2 2 0 0 1 2.916-.285zM579.66 460.12c.454 1.358.681 2.406.681 3.143 0 1.082-.177 2.661-.532 4.737h-33.286c-.865-2.907-.366-4.477 1.498-4.709 1.864-.231 3.412-.44 4.645-.628l15.077-6.833a1 1 0 0 1 1.34.535l.834 2.058c1.725.819 3.127 1.228 4.206 1.228.727 0 1.684-.248 2.87-.743a2 2 0 0 1 2.667 1.212z"/>
        <path fill="#2A2A2A" d="M628.007 405.362c18.094-2.952 30.214-4.97 36.36-6.056 17.517-3.092 22.625-12.532 19.605-33.126h-32.275c-4.271 1.235-22.117 8.873-53.538 22.915-5.654 2.81-4.6 11.096-3.567 13.826.042.112 9.572 16.464 28.59 49.059l26.403-16.842-21.628-27.791c-.571-1.152-.555-1.814.05-1.985z"/>
        <path fill="#FFCEB3" d="M599.617 302.805l-20.987-10.563c-3.567-3.948-7.051-6.989-10.453-9.123-1.03-.389-2.816-.584-1.052 2.307 1.765 2.89 3.49 6.01 2.676 6.948-.814.937-2.969-.258-3.925 1.286-.638 1.03 3.022 2.494 10.98 4.392l15.443 13.181 7.318-8.428z"/>
        <path fill="#4A90E2" d="M662.572 312.768l-1.547-4.975c-23.306-9.504-55.019-2.127-80.537-15.331l-3.654 8.17c22.858 33.816 61.765 25.26 85.738 12.136z"/>
        <path fill="#FFCEB3" d="M698.374 359.215c3.95 22.93 6.505 35.57 7.665 37.923.85 1.725 7.146 6.967 11.515 9.961 1.753 1.202 1.027 2.74.365 3.149-5.387 3.323-8.933-.606-13.596-2.775-5.108-2.376-4.677 4.333-8.726 2.521 1.243-2.786 4.15-7.97 2.777-11.374-.611-1.512-4.747-14.631-12.408-39.356l12.408-.049z"/>
        <path fill="#DDE3E9" d="M685.494 371.668h-45.429c-2.076 0-1.684-2.996-1.384-4.508 3.463-17.452 16.982-36.264 16.982-61.106L668.767 304c10.838 17.427 14.587 38.882 16.727 67.668z"/>
        <path fill="#4A90E2" d="M685.129 321.13c1.903-.547 3.41-1.823 4.521-3.827 4.79-8.64 3.06-13.397-2.058-14.96-5.119-1.564-9.683 1.657-17.838 1.657-.444 0-.85.028-1.22.083l-4.101.234c-11.77 39.878-15.016 66.483-9.738 79.817h35.756c2.118 4.938 4.145 9.093 6.081 12.465h9.743c.917-29.64-6.132-54.796-21.146-75.47z"/>
        <path fill="#000" fill-opacity=".1" d="M682.665 363.654c-1.125 9.406-2.953 16.232-5.484 20.48h13.27c-2.472-5.761-5.067-12.588-7.786-20.48z"/>
        <path fill="#50E3C2" d="M138.071 274c-1.325 0-2.645.027-3.969.095-1.008.053-2.55-.156-3.403.473-.887.653-.825 1.99-.687 2.933.732 4.992 2.52 9.418 6.258 12.955 5.757 5.445 12.356 8.212 20.166 9.444 5.485.866 10.55-.336 14.587-4.237 2.95 5.476 5.19 11.536 6.312 17.652.554 3.018.724 6 .626 9.073-.063 1.968-.171 3.932-.382 5.89-.092.852-.526 2.14-.192 2.945.39.944 1.71 1.036 2.302.23.493-.67.402-1.987.503-2.78.168-1.318.323-2.637.435-3.96.18-2.144.314-4.293.304-6.445-.023-4.833-1.097-9.685-2.567-14.273-2.82-8.803-7.396-16.626-14.512-22.764-4.376-3.774-9.383-5.302-15.065-6.123-3.537-.51-7.132-1.108-10.716-1.108"/>
        <path fill="#50E3C2" d="M158.503 309c-14.3 0-23.93 11.524-28.483 23.502-1.716 4.514-2.119 9.472-2.78 14.212-.213 1.522-.134 3.84-.751 5.195-.224.492-.738.668-.493 1.338.15.405.44.654.879.734.9.166 2.171-.814 2.942-1.2 6.396-3.208 10.599-8.168 14.027-14.236 2.125-3.761 4.281-7.666 5.544-11.795.77-2.523 1.22-5.18 1.483-7.796.104-1.03.204-2.086.198-3.122-.006-1.03-.484-1.573-.828-2.468 4.77-1.806 10.156-2.298 14.989-.427 4.47 1.731 8.183 5.076 10.262 9.279.54 1.092.957 2.244 1.26 3.42.2.77.209 1.768.577 2.464.893 1.688 2.77.56 2.59-1.011-.502-4.381-3.009-8.78-6.213-11.826-4.04-3.842-9.517-6.263-15.203-6.263"/>
        <rect width="159" height="302" x="173.931" y="56" fill="#DDE3E9" rx="8"/>
        <circle cx="252.931" cy="324" r="15" fill="#FFF"/>
        <g fill="#FFF" transform="translate(237.931 72)">
            <circle cx="2" cy="2" r="2"/>
            <rect width="21" height="4" x="9" rx="2"/>
        </g>
        <rect width="131" height="54" x="187.931" y="84" fill="#FFF" rx="4"/>
        <g fill="#DDE3E9" transform="translate(196.931 100.2)">
            <rect width="73" height="8.1" rx="3"/>
            <rect width="49" height="8.1" y="13.5" rx="3"/>
        </g>
        <g transform="translate(297.931 104)">
            <circle cx="7" cy="7" r="7" fill="#DDE3E9"/>
            <circle cx="7" cy="7" r="3" fill="#F2F2F2"/>
        </g>
        <g filter="url(#b)" transform="translate(137.931 146)">
            <rect width="131" height="42" fill="#FFF" rx="4"/>
            <g fill="#DDE3E9" transform="translate(39 12.6)">
                <rect width="73" height="6.3" rx="3"/>
                <rect width="49" height="6.3" y="10.5" rx="3"/>
            </g>
            <circle cx="21" cy="21" r="12" fill="#C5CFD6"/>
        </g>
        <rect width="131" height="42" x="187.931" y="196" fill="#FFF" rx="4"/>
        <g transform="translate(196.931 208.6)">
            <rect width="73" height="6.3" fill="#DDE3E9" rx="3"/>
            <rect width="49" height="6.3" y="10.5" fill="#AFB9C5" rx="3"/>
        </g>
        <g transform="translate(297.931 210)">
            <circle cx="7" cy="7" r="7" fill="#DDE3E9"/>
            <circle cx="7" cy="7" r="3" fill="#F2F2F2"/>
        </g>
        <rect width="131" height="42" x="187.931" y="246" fill="#FFF" rx="4"/>
        <g fill="#DDE3E9" transform="translate(226.931 258.6)">
            <rect width="73" height="6.3" rx="3"/>
            <rect width="49" height="6.3" y="10.5" rx="3"/>
        </g>
        <circle cx="208.931" cy="267" r="12" fill="#C5CFD6"/>
        <path fill="#B28B67" d="M75.805 170.116c-2.628-3.088-4.408-6.874-4.11-11.116.856-12.221 17.852-9.533 21.158-3.364 3.306 6.168 2.913 21.815-1.36 22.917-1.704.44-5.334-.637-9.028-2.866l2.319 16.422H71.092l4.713-21.993z"/>
        <path fill="#191847" d="M87.445 148.917c-1.871-.57-4.587-.764-5.73-.633a9.874 9.874 0 0 0 .698-4.987c-.205-1.643-.938-3.042-1.616-4.508-.313-.675-.667-1.347-1.196-1.864a4.08 4.08 0 0 0-1.933-1.04 5.17 5.17 0 0 0-2.228-.002c-.324.068-.615.217-.932.299-.326.084-.483-.12-.72-.324-.568-.494-1.403-.737-2.122-.824-.808-.098-1.646.024-2.416.29-.75.258-1.47.678-2.012 1.29-.242.273-.46.583-.603.925-.059.14-.068.224-.208.275-.13.048-.281.05-.415.095-1.293.438-2.398 1.438-3 2.722-.35.749-.517 2.067-.472 3.545.046 1.478 1.38 5.334 2.626 6.74 1.113 1.256 2.749 2.085 4.328 2.448-1.048 1.199-1.746 2.697-2.262 4.22a20.675 20.675 0 0 0-1.035 5.128c-.121 1.665-.133 3.426.257 5.055.365 1.524 1.145 2.774 2.447 3.567.597.363 1.239.636 1.884.886.636.245 1.274.484 1.94.622 1.262.261 2.715.216 3.687-.788.35-.363.735-.818.99-1.26.092-.16.148-.264.036-.42-.134-.186-.35-.328-.522-.474a4.923 4.923 0 0 1-1.738-3.259c-.155-1.337.204-3.064 1.503-3.648 1.604-.72 3.37.107 4.796.878.605-2.14 1.85-4.068 3.8-5.05 2.157-1.086 4.633-1.213 6.85-2.145.578-.242 1.166-.518 1.592-1.013.178-.207.386-.475.457-.748.093-.36-.138-.661-.317-.941-.948-1.485-4.543-4.485-6.414-5.057z"/>
        <path fill="#997659" d="M67.669 239.51l42.392 70.944 31.783 59.978h6.845L95.438 239.509z"/>
        <path fill="#02C2B2" d="M137.144 368.516c-.426 1.269-.639 2.25-.639 2.945 0 1.037.173 2.55.517 4.539h32.362c.841-2.786.355-4.29-1.456-4.512a178.865 178.865 0 0 1-4.516-.602l-14.64-6.54a1 1 0 0 0-1.332.532l-.8 1.944c-1.678.785-3.04 1.177-4.09 1.177-.698 0-1.616-.233-2.753-.697a2 2 0 0 0-2.653 1.214z"/>
        <path fill="#FFEC00" d="M133.017 360.828l13.202-3.998c-5.784-17.308-12.874-36.356-21.268-57.142-8.394-20.787-17.41-40.846-27.045-60.179H60.619c10.714 24.455 22.07 46.675 34.072 66.661 12.002 19.986 24.777 38.205 38.326 54.658z"/>
        <path fill="#B28B67" d="M64.883 239.51c-4.002 24.93-11.719 56.782-12.447 57.764-.485.656-17.964 6.519-52.436 17.59l1.479 6.042c41.107-5.937 62.768-10.544 64.98-13.82 3.32-4.912 19.893-43.726 26.312-67.577H64.883z"/>
        <path fill="#F8E71C" d="M12.117 309.64l2.605 9.732c30.746 2.7 49.585.749 56.517-5.852 6.931-6.6 14.831-31.27 23.7-74.01H59.383c-5.62 34.998-8.76 53.232-9.424 54.701-.664 1.47-13.278 6.612-37.843 15.429z"/>
        <path fill="#997659" d="M96.558 203.93l19.803-10.856c3.293-3.914 6.537-6.954 9.733-9.12.977-.408 2.685-.655 1.088 2.182-1.598 2.838-3.15 5.895-2.336 6.769.813.874 2.842-.347 3.813 1.105.647.969-2.82 2.498-10.4 4.59l-14.388 13.187-7.313-7.856zm31.014 9.16l8.699-4.782c1.22-4.65 2.68-6.988 4.377-7.017 1.304-.608-.967 5.266 1.505 4.757 2.472-.51 8.505-5.001 9.544-4.09 1.538 1.35.167 5.493-1.449 7.554-3.02 3.852-5.52 5.169-11.7 6.894-3.231.901-6.724 2.71-10.48 5.423l-.496-8.738z"/>
        <path fill="#FB83A6" d="M96.254 215.387c7.363 1.839 19.711-.33 37.044-6.503 4.3 8.903 6.287 15.25 5.962 19.042-14.869 7.775-27.613 11.241-38.112 11.47.334 6.236-.425 12.17-2.972 17.592-5.237 11.147-35.902.824-46.212 2.856-6.457-20.99 6.028-29.52 6.038-42.952.01-14.708 11.809-37.347 13.544-37.347h15.83c.874 11.233 5.27 23.612 8.878 35.842z"/>
        <path fill="#FB83A6" d="M86.914 201.512c6.936-.073 16.186-1.54 26.055-7.81l3.875 8.652c-6.807 6.762-16.379 12.319-24.748 12.083-6.596-.185-9.967-8.171-5.182-12.925z"/>
        <path fill="#4A90E2" d="M656.74 306.077c-11.226-4.653-18.336-1.487-21.33 9.5-2.993 10.986-1.443 29.699 4.65 56.139l14.707-51.264 1.972-14.375z"/>
        <path fill="#02C2B2" d="M55.55 494.316c-6.35 2.755-14.24-5.502-15.089 0-.849 5.503 3.845 15.792 12.31 18.02 8.465 2.228 17.077-1.236 21.592-9.098 4.515-7.862.56-19.982-3.724-22.014-4.284-2.031-8.74 10.337-15.09 13.092z" opacity=".253"/>
        <circle cx="354.266" cy="70.029" r="4" fill="#F2F2F2"/>
        <circle cx="366.266" cy="70.029" r="4" fill="#F2F2F2"/>
        <circle cx="378.266" cy="70.029" r="4" fill="#F2F2F2"/>
        <ellipse cx="713.863" cy="16" fill="#F8E71C" opacity=".253" rx="15.5" ry="16"/>
    </g>
</svg>
