<svg xmlns="http://www.w3.org/2000/svg" width="76" height="124" viewBox="0 0 76 124">
    <g fill="none" fill-rule="nonzero">
        <path fill="#4A90E2" d="M12.667 0C5.698 0 0 5.705 0 12.682v98.636C0 118.295 5.698 124 12.667 124h39.407a2.814 2.814 0 0 0 2.471-1.398 2.821 2.821 0 0 0 0-2.841 2.814 2.814 0 0 0-2.47-1.398H12.666c-3.948 0-7.037-3.093-7.037-7.045v-9.864h64.74v9.864c0 3.952-3.09 7.045-7.037 7.045a2.814 2.814 0 0 0-2.47 1.398 2.821 2.821 0 0 0 0 2.841 2.814 2.814 0 0 0 2.47 1.398C70.302 124 76 118.295 76 111.318V12.682C76 5.705 70.302 0 63.333 0H12.667z"/>
        <path fill="#FFF" d="M13.065 6h50.87C67.898 6 71 8.927 71 12.667V14H6v-1.333C6 8.927 9.102 6 13.065 6zM6 20h65v76H6z"/>
        <path fill="#F8E71C" d="M8 23h18.4v23H8z"/>
        <path fill="#50E3C2" d="M29 23h40v23H29z"/>
        <path fill="#FB83A6" d="M8 49h61v23H8z"/>
        <path fill="#4A90E2" d="M38 106a4 4 0 1 0 0 8 4 4 0 0 0 0-8z"/>
    </g>
</svg>
