<svg xmlns="http://www.w3.org/2000/svg" width="112" height="91" viewBox="0 0 112 91">
    <g fill="none" fill-rule="nonzero">
        <path fill="#4A90E2" d="M68.75 70h-24.5c-2.8 0-5.25 2.45-5.25 5.25s2.45 5.25 5.25 5.25H46C46 86.45 50.55 91 56.5 91S67 86.45 67 80.5h1.75c2.8 0 5.25-2.45 5.25-5.25S71.55 70 68.75 70z"/>
        <path fill="#F8E71C" d="M59.388.224C33.198-2.932 18.183 27.93 35.294 46.868c4.19 4.559 6.984 10.17 8.38 16.132h9.08V46.517l-7.334-9.469c-1.047-1.403-.698-3.858.699-4.91 1.397-1.052 3.841-.701 4.889.702l5.238 6.663 4.888-6.663c1.048-1.403 3.492-1.754 4.89-.702 1.396 1.052 1.745 3.507.698 4.91l-6.984 9.469V63h9.079c1.397-6.313 4.19-11.924 8.38-16.483C91.865 29.683 81.389 2.679 59.389.224z"/>
        <path fill="#4A90E2" d="M110.594 28.182l-14.06-10.568c-1.406-1.056-3.866-.704-4.92.705-1.055 1.409-.704 3.875.702 4.931L102.51 31l-10.194 7.75c-1.406 1.056-1.757 3.522-.703 4.931 1.055 1.41 3.515 1.761 4.921.705l14.06-10.568C111.649 33.114 112 32.057 112 31c0-1.057-.351-2.114-1.406-2.818zM20.387 18.319c-1.055-1.41-3.515-1.761-4.921-.705L1.406 28.182C.351 28.886 0 29.943 0 31c0 1.057.351 2.114 1.406 2.818l14.06 10.568c1.406 1.056 3.866.704 4.92-.705 1.055-1.409.704-3.875-.702-4.931L9.49 31l10.194-7.75c1.406-1.056 1.757-3.522.703-4.931z"/>
    </g>
</svg>
