<svg xmlns="http://www.w3.org/2000/svg" width="68" height="58" viewBox="0 0 68 58">
    <g fill="none" fill-rule="nonzero">
        <path fill="#50E3C2" d="M8 47.458v7.62C8 56.145 8.8 57 9.8 57h9.4c1 0 1.8-.854 1.8-1.923V34l-9.667 11.18C10.467 46.248 9.267 47.03 8 47.458z"/>
        <path fill="#FFEC00" d="M38 39.857c-2 0-3.867-.786-5.333-2.214L28 33v22.071c0 1.072.8 1.929 1.8 1.929h9.4c1 0 1.8-.857 1.8-1.929V39.286c-.333.143-.667.285-1.067.357a9.383 9.383 0 0 1-1.933.214z"/>
        <path fill="#FB83A6" d="M57.133 23L47 34.714v21.37c0 1.064.8 1.916 1.8 1.916h9.4c1 0 1.8-.852 1.8-1.917V24.917c-.867-.284-1.733-.781-2.4-1.491L57.133 23z"/>
        <path fill="#4A90E2" d="M65.151.058L49.384 3.665c-1.864.433-2.509 2.813-1.075 4.112l3.727 3.462L37.7 26.892 26.45 16.432a4.139 4.139 0 0 0-5.805.217L1.078 38.073c-1.506 1.659-1.434 4.256.215 5.843a4.139 4.139 0 0 0 5.805-.217l16.77-18.322 11.253 10.387c1.075.938 2.437 1.299 3.727.938.789-.216 1.505-.577 2.007-1.226l17.13-18.755 3.726 3.463c1.434 1.298 3.727.504 3.942-1.443l2.294-16.086C68.305 1.068 66.8-.302 65.15.058z"/>
    </g>
</svg>
