<svg xmlns="http://www.w3.org/2000/svg" width="80" height="84" viewBox="0 0 80 84">
    <g fill="none" fill-rule="nonzero">
        <path fill="#4A90E2" d="M45.167 42h-1.88c-2.117 1.89-5.486 3.1-9.326 3.1-3.84 0-7.21-1.21-9.326-3.1h-1.332C16.486 42 11 46.008 11 51h46c0-4.992-5.329-9-11.833-9zM34 14c-7.672 0-14 6.249-14 14 0 7.672 6.249 14 14 14 7.672 0 14-6.249 14-14s-6.328-14-14-14zm0 24.836c-6.011 0-10.836-4.904-10.836-10.836 0-.95.158-1.82.316-2.61 1.266.633 3.56 1.503 6.249 1.503 1.898 0 3.955-.475 5.853-1.82.237-.158 4.983-3.559 8.78-.158.316.95.474 2.057.474 3.085 0 5.932-4.904 10.836-10.836 10.836z"/>
        <path fill="#FB83A6" d="M67.29 82.524h-7.662c.474-.621.79-1.398.79-2.252V55.728c0-2.097-1.737-3.728-3.79-3.728H12.4c-2.133 0-3.791 1.709-3.791 3.728v24.544c0 .854.316 1.63.79 2.252H.71c-.395 0-.711.311-.711.7v.077c0 .388.316.699.71.699h66.58c.394 0 .71-.31.71-.699v-.078c0-.31-.316-.699-.71-.699zM34.512 72.04c-2.369 0-4.264-1.864-4.264-4.194s1.895-4.195 4.264-4.195c2.37 0 4.265 1.865 4.265 4.195 0 2.252-1.895 4.194-4.265 4.194z"/>
        <path fill="#F8E71C" d="M79.549 11.43C77.58 3.282 69.706-1.588 61.92.472c-7.785 2.06-12.438 10.396-10.47 18.45.984 3.84 3.222 6.93 6.174 8.99L53.778 34l15.301-4.12c7.785-2.061 12.438-10.303 10.47-18.45zm-8.77 5.15v3.466h-3.042c.537 1.592.984 4.12-1.521 4.027-2.416 0-1.969-2.529-1.521-4.027H58.61V16.58c1.521.468 3.758.842 3.758-1.593 0-2.528-2.237-2.247-3.758-1.685V7.309h5.906c-.537 1.592-.895 4.027 1.52 4.027 2.506 0 2.059-2.435 1.612-4.027h3.132v5.994c1.52-.562 3.847-.937 3.847 1.685 0 2.529-2.326 2.06-3.847 1.593z"/>
    </g>
</svg>
