<svg xmlns="http://www.w3.org/2000/svg" width="80" height="80" viewBox="0 0 80 80">
    <g fill="none" fill-rule="nonzero">
        <path fill="#4A90E2" d="M68.124 3.062l-.397.836-27.254 57.488c-.34.696-1.076.835-1.53.348l-17.96-17.678.056-.557 28.047-25.751c.34-.348.453-.905.17-1.323-.227-.417-.737-.556-1.077-.278L17.413 40.089v.139l-1.587 13.363c-.056.487-.566.487-.68 0l-3.06-18.583-2.322-2.366-9.406-9.326c-.623-.696-.396-2.019.397-2.228l58.076-19L66.311.07c.113-.07.226-.07.34-.07 1.303 0 2.152 1.67 1.473 3.062z"/>
        <path fill="#50E3C2" d="M73.375 62.91l-.13.242-8.988 16.664c-.112.201-.355.242-.505.1l-5.923-5.124.019-.161 9.249-7.464c.112-.101.15-.263.056-.384-.075-.12-.243-.161-.355-.08l-10.146 6.94v.04l-.524 3.873c-.018.141-.186.141-.224 0l-1.009-5.386-.766-.686-3.102-2.703c-.205-.202-.13-.585.131-.646l19.153-5.507 2.466-.585c.038-.02.075-.02.113-.02.43 0 .71.484.485.887z"/>
        <path fill="#FB83A6" d="M79.92 32.348l-.13.242-8.988 16.664c-.112.201-.355.242-.504.1l-5.924-5.123.019-.162 9.25-7.464c.112-.1.149-.262.055-.383-.074-.121-.242-.162-.355-.081l-10.146 6.94v.04l-.523 3.873c-.019.142-.187.142-.224 0l-1.01-5.386-.765-.686-3.102-2.703c-.206-.202-.131-.585.13-.646l19.153-5.507 2.467-.585c.037-.02.075-.02.112-.02.43 0 .71.484.486.887z"/>
    </g>
</svg>
