<svg xmlns="http://www.w3.org/2000/svg" width="96" height="98" viewBox="0 0 96 98">
    <g fill="none" fill-rule="nonzero">
        <path fill="#02C2B2" d="M17 0C10.94 0 6 4.94 6 11s4.94 11 11 11h62c6.06 0 11-4.94 11-11S85.06 0 79 0H17z"/>
        <path fill="#FFF" d="M17 4h62c3.913 0 7 3.087 7 7s-3.087 7-7 7H17c-3.913 0-7-3.087-7-7s3.087-7 7-7z"/>
        <path fill="#4A90E2" d="M17 8a3 3 0 1 0 0 6 3 3 0 0 0 0-6zM29 8a3 3 0 1 0 0 6 3 3 0 0 0 0-6zM41 8a3 3 0 1 0 0 6 3 3 0 0 0 0-6z"/>
        <path fill="#02C2B2" d="M17 26c-6.06 0-11 4.94-11 11s4.94 11 11 11h62c6.06 0 11-4.94 11-11s-4.94-11-11-11H17z"/>
        <path fill="#FFF" d="M17 30h62c3.913 0 7 3.087 7 7s-3.087 7-7 7H17c-3.913 0-7-3.087-7-7s3.087-7 7-7z"/>
        <path fill="#4A90E2" d="M17 34a3 3 0 1 0 0 6 3 3 0 0 0 0-6zM29 34a3 3 0 1 0 0 6 3 3 0 0 0 0-6zM41 34a3 3 0 1 0 0 6 3 3 0 0 0 0-6z"/>
        <path fill="#02C2B2" d="M17 52c-6.06 0-11 4.94-11 11s4.94 11 11 11h29v10.313A7.059 7.059 0 0 0 41.313 89H13.688c-.873-2.873-3.544-5-6.688-5-3.842 0-7 3.158-7 7s3.158 7 7 7a7.032 7.032 0 0 0 6.719-5H41.28c.863 2.89 3.564 5 6.719 5a7.032 7.032 0 0 0 6.719-5H82.28c.863 2.89 3.564 5 6.719 5 3.842 0 7-3.158 7-7s-3.158-7-7-7c-3.144 0-5.815 2.127-6.687 5H54.688A7.059 7.059 0 0 0 50 84.313V74h29c6.06 0 11-4.94 11-11s-4.94-11-11-11H17z"/>
        <path fill="#FFF" d="M17 56h62c3.913 0 7 3.087 7 7s-3.087 7-7 7H17c-3.913 0-7-3.087-7-7s3.087-7 7-7z"/>
        <path fill="#FB83A6" d="M17 60a3 3 0 1 0 0 6 3 3 0 0 0 0-6zM29 60a3 3 0 1 0 0 6 3 3 0 0 0 0-6zM41 60a3 3 0 1 0 0 6 3 3 0 0 0 0-6z"/>
        <path fill="#F8E71C" d="M7 88c1.68 0 3 1.32 3 3s-1.32 3-3 3-3-1.32-3-3 1.32-3 3-3zM48 88c1.68 0 3 1.32 3 3s-1.32 3-3 3-3-1.32-3-3 1.32-3 3-3zM89 88c1.68 0 3 1.32 3 3s-1.32 3-3 3-3-1.32-3-3 1.32-3 3-3z"/>
    </g>
</svg>
