<svg xmlns="http://www.w3.org/2000/svg" width="80" height="73" viewBox="0 0 80 73">
    <g fill="none" fill-rule="nonzero">
        <path fill="#4A696F" d="M48 60.5v5c0 4.15-3.35 7.5-7.5 7.5a7.49 7.49 0 0 1-7.5-7.5v-5c0-1.4 1.1-2.5 2.5-2.5h10c1.4 0 2.5 1.1 2.5 2.5z"/>
        <path fill="#384949" d="M47 60.5v5c0 4.15-3.126 7.5-7 7.5V58h4.667C45.974 58 47 59.1 47 60.5z"/>
        <path fill="#FFE470" d="M40.5 4C25.942 4 15 15.677 15 29.385c0 8.215 3.94 15.923 10.849 20.769 1.901 1.338 3.06 3.692 3.06 6.323v.6c0 3.83 3.106 6.923 6.955 6.923h9.272c3.849 0 6.955-3.093 6.955-6.923v-.739c0-2.492 1.344-4.892 3.663-6.646C62.244 44.846 66 37.462 66 29.385 66 15.445 54.734 4.046 40.5 4z"/>
        <path fill="#F4D7AF" d="M77.787 31h-4.574C71.99 31 71 29.882 71 28.5s.99-2.5 2.213-2.5h4.574C79.01 26 80 27.118 80 28.5s-.99 2.5-2.213 2.5z"/>
        <path fill="#FAECD8" d="M6.787 31H2.213C.99 31 0 29.882 0 28.5S.99 26 2.213 26h4.574C8.01 26 9 27.118 9 28.5S8.01 31 6.787 31z"/>
        <path fill="#F4D7AF" d="M62.6 6.4c-.8-.802-.8-2.1 0-2.9L65.5.6a2.05 2.05 0 1 1 2.9 2.9l-2.9 2.9c-.8.8-2.098.8-2.9 0z"/>
        <path fill="#FAECD8" d="M11.6 55.4c-.8-.802-.8-2.1 0-2.9l2.9-2.9a2.05 2.05 0 1 1 2.9 2.9l-2.9 2.9c-.8.8-2.098.8-2.9 0zM14.5 6.4l-2.9-2.9A2.05 2.05 0 1 1 14.5.6l2.9 2.9a2.05 2.05 0 1 1-2.9 2.9z"/>
        <path fill="#F4D7AF" d="M65.5 55.4l-2.9-2.9a2.05 2.05 0 1 1 2.9-2.9l2.9 2.9a2.05 2.05 0 1 1-2.9 2.9z"/>
        <path fill="#FDBF00" d="M53.005 31.87L41.13 23.78l3.643-7.443c.495-1.017.18-2.219-.72-2.912-.9-.647-2.113-.555-2.878.277L27.68 27.571c-.495.462-.72 1.155-.674 1.849.09.693.45 1.294.989 1.71l11.875 8.09-3.643 7.443c-.495 1.017-.18 2.219.72 2.912.9.648 2.113.555 2.878-.277L53.32 35.429c.495-.462.72-1.155.674-1.849a2.565 2.565 0 0 0-.989-1.71z"/>
        <path fill="#FF9F00" d="M54.994 34.387c.05.72-.2 1.441-.75 1.922L40 50V14.45l.75-.72c.85-.865 2.199-.961 3.198-.289 1 .721 1.35 1.97.8 3.027L40.7 24.202l13.195 8.407c.599.432.999 1.057 1.099 1.778z"/>
    </g>
</svg>
