<svg xmlns="http://www.w3.org/2000/svg" width="33" height="35" viewBox="0 0 33 35">
    <g fill="none" fill-rule="nonzero">
        <path fill="#4A90E2" d="M18.598 17.6h-.774c-.871.783-2.259 1.285-3.84 1.285s-2.969-.502-3.84-1.285h-.549c-2.807 0-5.066 1.66-5.066 3.729h18.942c0-2.068-2.195-3.729-4.873-3.729zM14 6c-3.16 0-5.765 2.589-5.765 5.8 0 3.179 2.573 5.8 5.765 5.8 3.16 0 5.765-2.589 5.765-5.8S17.159 6 14 6zm0 10.29c-2.475 0-4.462-2.032-4.462-4.49 0-.393.065-.754.13-1.081.521.262 1.466.622 2.573.622.782 0 1.629-.196 2.41-.753.098-.066 2.052-1.475 3.616-.066.13.393.195.852.195 1.278 0 2.458-2.02 4.49-4.462 4.49z"/>
        <path fill="#FB83A6" d="M27.707 34.389h-3.154c.195-.258.325-.58.325-.934V23.287c0-.868-.715-1.544-1.56-1.544H5.105c-.878 0-1.561.708-1.561 1.544v10.168c0 .354.13.676.325.934H.293a.29.29 0 0 0-.293.29v.031c0 .161.13.29.293.29h27.414a.29.29 0 0 0 .293-.29v-.032c0-.128-.13-.29-.293-.29zm-13.496-4.344a1.74 1.74 0 0 1-1.756-1.738c0-.965.78-1.738 1.756-1.738a1.74 1.74 0 0 1 1.756 1.738 1.76 1.76 0 0 1-1.756 1.738z"/>
        <path fill="#FDBF00" d="M32.813 4.706C32 1.351 28.74-.654 25.52.194c-3.221.849-5.147 4.28-4.332 7.597a6.407 6.407 0 0 0 2.555 3.702L22.149 14l6.332-1.697c3.221-.848 5.147-4.242 4.332-7.597zm-3.628 2.121v1.427h-1.26c.223.656.408 1.697-.629 1.658-1 0-.814-1.04-.63-1.658H24.15V6.827c.63.193 1.555.347 1.555-.655 0-1.042-.926-.926-1.555-.694V3.01h2.444c-.222.655-.37 1.658.63 1.658 1.036 0 .85-1.003.666-1.658h1.296v2.468c.63-.232 1.592-.386 1.592.694 0 1.04-.963.848-1.592.655z"/>
    </g>
</svg>
