<svg xmlns="http://www.w3.org/2000/svg" width="60" height="60" viewBox="0 0 60 60">
    <g fill="none" fill-rule="nonzero">
        <path fill="#4A90E2" d="M51.093 2.297l-.298.626-20.44 43.117c-.255.522-.807.626-1.147.26L15.737 33.043l.042-.418 21.035-19.313c.255-.261.34-.679.128-.992-.17-.313-.553-.418-.808-.209L13.06 30.067v.104l-1.19 10.022c-.043.366-.425.366-.51 0L9.065 26.256l-1.742-1.775-7.054-6.994c-.468-.522-.298-1.514.297-1.67L44.123 1.565l5.61-1.514c.085-.052.17-.052.255-.052.977 0 1.615 1.253 1.105 2.297z"/>
        <path fill="#50E3C2" d="M55.032 47.183l-.099.181-6.74 12.498c-.085.15-.267.181-.379.075l-4.442-3.843.014-.12 6.937-5.599c.084-.076.112-.197.042-.287-.056-.091-.182-.121-.267-.061l-7.61 5.205v.03l-.392 2.905c-.014.106-.14.106-.168 0l-.757-4.04-.574-.514-2.327-2.028c-.154-.15-.098-.438.099-.484l14.364-4.13 1.85-.439c.028-.015.056-.015.084-.015.322 0 .533.363.365.666z"/>
        <path fill="#FB83A6" d="M59.94 24.261l-.097.182-6.741 12.497c-.084.152-.267.182-.379.076l-4.442-3.843.014-.121 6.937-5.598c.084-.076.112-.197.042-.288-.056-.09-.182-.12-.266-.06l-7.61 5.204v.03l-.393 2.906c-.014.106-.14.106-.168 0l-.757-4.04-.574-.514-2.326-2.028c-.155-.151-.099-.439.098-.484l14.364-4.13 1.85-.44c.028-.014.056-.014.084-.014.323 0 .533.363.365.665z"/>
    </g>
</svg>
