<svg xmlns="http://www.w3.org/2000/svg" width="42" height="76" viewBox="0 0 42 76">
    <g fill="none" fill-rule="nonzero">
        <path fill="#EF6AA4" d="M5.508 46.307C2.618 48.494.773 52.574.81 56.7l.061 6.89a1.76 1.76 0 0 0 1.291 1.675 1.696 1.696 0 0 0 1.931-.785c1.575-2.758 4.246-5.822 5.5-5.98L5.507 46.308zM36.498 46.3l-4.431 12.17c1.07.146 2.96 2.108 5.945 6.172.441.602 1.225.827 1.932.581a1.812 1.812 0 0 0 1.222-1.671l.12-6.96c.067-3.93-1.811-7.971-4.788-10.291z"/>
        <path fill="#7C8388" d="M33.753 57.581c-1.32 4.373-1.595 4.821-1.735 5.544a1.712 1.712 0 0 1-1.69 1.347l-17.204.045c-.791.002-1.512-.547-1.682-1.338-.136-.722-.376-1.031-1.775-5.535l3.381-3.45 17.204-.045 3.5 3.432z"/>
        <path fill="#575F64" d="M33.732 57.56c-1.433 4.518-1.725 4.983-1.881 5.728a1.837 1.837 0 0 1-1.76 1.414l-8.841.175.21-10.609 8.734-.173 3.538 3.465z"/>
        <path fill="#FAECD8" d="M33.374 57.91l-24.723.026c-5.42-17.69-5.264-32.276.47-43.655l11.973-.048 11.725-.011c5.675 11.33 5.872 25.952.555 43.688z"/>
        <path fill="#64E1DC" d="M21.115 21.68h-.108c-4.971 0-9.007 4.035-9.006 9.006 0 4.972 4.035 9.007 9.006 9.006h.108c4.899-.072 8.898-4.07 8.898-9.006 0-4.935-4-8.934-8.898-9.006z"/>
        <path fill="#EF6AA4" d="M33.046 14.398c-2.94 2.545-7.172 4.192-11.908 4.224h-.108c-4.808-.004-9.115-1.622-12.06-4.208a35.149 35.149 0 0 1 1.792-3.227c2.365-3.766 5.412-7.136 9.106-10.111.358-.287.825-.43 1.255-.358.359 0 .718.108 1.005.36a40.38 40.38 0 0 1 9.086 10.125 45.995 45.995 0 0 1 1.832 3.195z"/>
        <path fill="#EF6AA4" d="M33.085 14.359c-2.863 2.47-7.006 4.043-11.662 4.022L21.21.777c.352.004.706.115.992.365a41.051 41.051 0 0 1 9.045 10.055 46.56 46.56 0 0 1 1.837 3.162zM22.252 47.497a1.664 1.664 0 0 0-1.13-.423c-.493-.071-1.022.07-1.375.422-4.62 4.55-4.02 7.196-4.02 7.725.005 15.275 3.675 19.122 4.063 19.51.353.318.776.495 1.235.495.035 0 .07 0 .106-.036.353 0 .705-.14.987-.387.706-.565 4.197-4.232 4.193-19.578 0-3.458-1.483-5.187-4.059-7.728z"/>
        <path fill="#EF6AA4" d="M21.763 47.008c2.534 2.5 3.993 4.201 3.998 7.599.023 15.081-3.404 18.682-4.096 19.235-.277.242-.623.38-.97.38l-.042-27.632c.416 0 .797.14 1.11.418z"/>
    </g>
</svg>
